<svg id="Capa_1" enable-background="new 0 0 461.237 461.237" height="512" viewBox="0 0 461.237 461.237" width="512" xmlns="http://www.w3.org/2000/svg"><g><path d="m80.137 153.322v211.28c0 10.108 8.189 18.305 18.298 18.314 10.115.012 18.325-8.177 18.337-18.292 0-.008 0-.015 0-.022v-25.582c0-9.941 8.059-17.999 17.999-17.999 9.941 0 17.999 8.059 17.999 17.999v102.636c0 10.814 8.766 19.58 19.58 19.58 10.814 0 19.58-8.766 19.58-19.58v-165.476z" fill="#ef5261"/><path d="m340.359 220.589v188.224c0 11.162-9.048 20.21-20.21 20.21-11.162 0-20.21-9.048-20.21-20.21v-57.48c-.015-8.366-6.793-15.143-15.159-15.159-8.366.016-15.143 6.793-15.159 15.159v31.583c0 10.814-8.766 19.58-19.58 19.58-10.814 0-19.58-8.766-19.58-19.58v-105.477z" fill="#ef5261"/><circle cx="230.618" cy="153.322" fill="#dbd8dd" r="153.322"/><path d="m230.618 246.486c-58.123 0-105.241-47.118-105.241-105.241s47.118-105.24 105.241-105.24 105.241 47.118 105.241 105.241c-.065 58.095-47.145 105.175-105.241 105.24z" fill="#ef5261"/><path d="m230.618 205.115c-36.234 0-65.608-29.374-65.608-65.608s29.374-65.608 65.608-65.608c36.23 0 65.602 29.367 65.608 65.597-.034 36.222-29.386 65.579-65.608 65.619z" fill="#414451"/><circle cx="273.356" cy="106.388" fill="#eeefee" r="23.028"/></g></svg>